<svg xmlns="http://www.w3.org/2000/svg" viewBox="0 0 500 160" width="500" height="160" role="img" aria-labelledby="title desc">
  <title id="title">ProtocolLab transparent README header — white</title>
  <desc id="desc">The ProtocolLab horizontal lockup prepared as a transparent README header.</desc>
  <g transform="translate(24 48) scale(1)">
    <path d="M25 6H14L6 14V23 M39 6H50L58 14V23 M58 41V50L50 58H39 M25 58H14L6 50V41" fill="none" stroke="#FFFFFF" stroke-width="6" stroke-linecap="square" stroke-linejoin="miter"/>
    <path d="M25 13H17L13 17V23 M39 13H47L51 17V23 M51 41V47L47 51H39 M25 51H17L13 47V41" fill="none" stroke="#FFFFFF" stroke-width="2" stroke-linecap="square" stroke-linejoin="miter"/>
    <path d="M2 28H25 M39 28H62 M2 36H25 M39 36H62" fill="none" stroke="#FFFFFF" stroke-width="6" stroke-linecap="square"/>
    <path d="M32 2V11 M32 25V39 M32 53V62" fill="none" stroke="#FFFFFF" stroke-width="6" stroke-linecap="square"/>
  </g>
<path d="M82 0V698H396Q444 698 482.5 682.5Q521 667 548.0 638.5Q575 610 589.0 570.0Q603 530 603 482Q603 433 589.0 393.5Q575 354 548.0 325.5Q521 297 482.5 281.5Q444 266 396 266H214V0ZM214 380H384Q422 380 444.0 400.5Q466 421 466 459V505Q466 543 444.0 563.0Q422 583 384 583H214Z" transform="translate(112 101) scale(0.054 -0.054)" fill="#FFFFFF"/>
<path d="M74 0V522H202V414H207Q212 435 222.5 454.5Q233 474 250.0 489.0Q267 504 290.5 513.0Q314 522 345 522H373V401H333Q268 401 235.0 382.0Q202 363 202 320V0Z" transform="translate(145.724 101) scale(0.054 -0.054)" fill="#FFFFFF"/>
<path d="M281 -12Q225 -12 180.5 7.0Q136 26 104.5 62.0Q73 98 56.0 148.5Q39 199 39 262Q39 325 56.0 375.0Q73 425 104.5 460.5Q136 496 180.5 515.0Q225 534 281 534Q337 534 382.0 515.0Q427 496 458.5 460.5Q490 425 507.0 375.0Q524 325 524 262Q524 199 507.0 148.5Q490 98 458.5 62.0Q427 26 382.0 7.0Q337 -12 281 -12ZM281 91Q332 91 361.0 122.0Q390 153 390 213V310Q390 369 361.0 400.0Q332 431 281 431Q231 431 202.0 400.0Q173 369 173 310V213Q173 153 202.0 122.0Q231 91 281 91Z" transform="translate(166.326 101) scale(0.054 -0.054)" fill="#FFFFFF"/>
<path d="M237 0Q171 0 136.5 34.5Q102 69 102 133V420H25V522H65Q94 522 104.5 535.5Q115 549 115 576V665H230V522H337V420H230V102H329V0Z" transform="translate(196.162 101) scale(0.054 -0.054)" fill="#FFFFFF"/>
<path d="M281 -12Q225 -12 180.5 7.0Q136 26 104.5 62.0Q73 98 56.0 148.5Q39 199 39 262Q39 325 56.0 375.0Q73 425 104.5 460.5Q136 496 180.5 515.0Q225 534 281 534Q337 534 382.0 515.0Q427 496 458.5 460.5Q490 425 507.0 375.0Q524 325 524 262Q524 199 507.0 148.5Q490 98 458.5 62.0Q427 26 382.0 7.0Q337 -12 281 -12ZM281 91Q332 91 361.0 122.0Q390 153 390 213V310Q390 369 361.0 400.0Q332 431 281 431Q231 431 202.0 400.0Q173 369 173 310V213Q173 153 202.0 122.0Q231 91 281 91Z" transform="translate(215.792 101) scale(0.054 -0.054)" fill="#FFFFFF"/>
<path d="M280 -12Q222 -12 177.0 7.0Q132 26 101.5 62.0Q71 98 55.0 148.5Q39 199 39 262Q39 325 55.0 375.0Q71 425 101.5 460.5Q132 496 177.0 515.0Q222 534 280 534Q359 534 410.5 499.0Q462 464 485 402L380 355Q371 388 346.5 409.5Q322 431 280 431Q226 431 199.5 397.0Q173 363 173 308V213Q173 158 199.5 124.5Q226 91 280 91Q326 91 351.0 114.5Q376 138 390 173L488 126Q462 57 409.0 22.5Q356 -12 280 -12Z" transform="translate(245.844 101) scale(0.054 -0.054)" fill="#FFFFFF"/>
<path d="M281 -12Q225 -12 180.5 7.0Q136 26 104.5 62.0Q73 98 56.0 148.5Q39 199 39 262Q39 325 56.0 375.0Q73 425 104.5 460.5Q136 496 180.5 515.0Q225 534 281 534Q337 534 382.0 515.0Q427 496 458.5 460.5Q490 425 507.0 375.0Q524 325 524 262Q524 199 507.0 148.5Q490 98 458.5 62.0Q427 26 382.0 7.0Q337 -12 281 -12ZM281 91Q332 91 361.0 122.0Q390 153 390 213V310Q390 369 361.0 400.0Q332 431 281 431Q231 431 202.0 400.0Q173 369 173 310V213Q173 153 202.0 122.0Q231 91 281 91Z" transform="translate(272.926 101) scale(0.054 -0.054)" fill="#FFFFFF"/>
<path d="M202 0Q136 0 105.0 33.0Q74 66 74 126V740H202V102H271V0Z" transform="translate(302.978 101) scale(0.054 -0.054)" fill="#FFFFFF"/>
<path d="M82 0V698H214V117H489V0Z" transform="translate(318.504 101) scale(0.054 -0.054)" fill="#FFFFFF"/>
<path d="M458 0Q416 0 391.5 24.5Q367 49 361 90H355Q342 39 302.0 13.5Q262 -12 203 -12Q123 -12 80.0 30.0Q37 72 37 142Q37 223 95.0 262.5Q153 302 260 302H349V340Q349 384 326.0 408.0Q303 432 252 432Q207 432 179.5 412.5Q152 393 133 366L57 434Q86 479 134.0 506.5Q182 534 261 534Q367 534 422.0 486.0Q477 438 477 348V102H529V0ZM246 81Q289 81 319.0 100.0Q349 119 349 156V225H267Q167 225 167 161V144Q167 112 187.5 96.5Q208 81 246 81Z" transform="translate(346.45 101) scale(0.054 -0.054)" fill="#FFFFFF"/>
<path d="M74 740H202V436H206Q220 481 259.0 507.5Q298 534 350 534Q450 534 502.5 463.5Q555 393 555 262Q555 130 502.5 59.0Q450 -12 350 -12Q298 -12 259.5 15.0Q221 42 206 87H202V0H74ZM309 94Q359 94 390.0 127.0Q421 160 421 216V306Q421 362 390.0 395.5Q359 429 309 429Q263 429 232.5 406.0Q202 383 202 345V179Q202 138 232.5 116.0Q263 94 309 94Z" transform="translate(376.286 101) scale(0.054 -0.054)" fill="#FFFFFF"/>
</svg>
